<?xml version="1.0" encoding="UTF-8"?>
<svg version="1.1" xmlns="http://www.w3.org/2000/svg" width="512" height="512">
<path d="M0 0 C1.66482422 -0.05607422 1.66482422 -0.05607422 3.36328125 -0.11328125 C11.18411196 0.88844677 16.49040905 7.8387259 21.77734375 13.171875 C23.07146935 14.46668793 23.07146935 14.46668793 24.39173889 15.78765869 C26.21202034 17.6109542 28.02987777 19.43667253 29.84545898 21.26464844 C32.60677306 24.04415299 35.37593861 26.81563794 38.14648438 29.5859375 C39.91974195 31.36411364 41.69254336 33.14274483 43.46484375 34.921875 C44.69484352 36.15354401 44.69484352 36.15354401 45.94969177 37.41009521 C49.45934968 40.94842528 52.9002331 44.49952181 56.14868164 48.28027344 C60.36370403 53.17182116 64.94612606 57.67674176 69.53125 62.21875 C70.9494165 63.63112932 72.36758007 65.04351161 73.78557587 66.45606232 C76.25073132 68.91037501 78.71920509 71.36134533 81.1875 73.8125 C84.13735631 76.74187203 87.08657839 79.67186285 90.03186035 82.60583496 C91.85818429 84.42470613 93.68675361 86.24132652 95.51794434 88.05529785 C99.18746946 91.71035449 102.79548302 95.36532452 106.16943359 99.29663086 C110.45539279 104.28481948 115.14323471 108.85431154 119.8203125 113.47265625 C120.7851922 114.43056961 121.74969293 115.38886482 122.71383667 116.34751892 C126.76924147 120.3787331 130.8304213 124.40409227 134.89599609 128.42504883 C137.39821154 130.90032467 139.89540306 133.38058048 142.38967514 135.86385918 C143.78669744 137.25176065 145.1893196 138.63401826 146.59207153 140.01612854 C156.16946398 149.55580321 159.87913314 155.46094986 160 169.0625 C160.02900391 170.135 160.05800781 171.2075 160.08789062 172.3125 C160.14071169 178.91107006 159.70534554 182.99766572 155.6875 188.3125 C152.04743591 191.94532738 147.95376519 195.04243512 142.6875 195.3125 C141.635625 195.43625 140.58375 195.56 139.5 195.6875 C128.67461236 194.62270777 122.17220919 187.3718932 115.48046875 179.58203125 C111.73481764 175.2958522 107.74958326 171.29676557 103.6875 167.3125 C99.72882627 163.42966293 95.83691662 159.54909338 92.21875 155.34375 C88.42607952 150.94046818 84.33176794 146.88263076 80.1875 142.8125 C75.35579979 138.0672345 70.6688257 133.2813904 66.26171875 128.13598633 C60.99607118 122.03655678 56.49543331 116.99982939 48.046875 116 C41.61842839 115.71897501 37.97321931 116.71371238 32.6875 120.3125 C32.0275 120.3125 31.3675 120.3125 30.6875 120.3125 C28.06322136 126.68574813 26.39096489 132.08747734 26.43212891 139.02685547 C26.42669823 140.15006195 26.42669823 140.15006195 26.42115784 141.29595947 C26.41429356 142.91317405 26.4117528 144.53041165 26.41310501 146.14764023 C26.41407504 148.71285244 26.40107183 151.27765111 26.38412476 153.84280396 C26.33799737 161.13296326 26.31325468 168.42307855 26.30664062 175.71337891 C26.30161086 180.18141856 26.27728937 184.64902428 26.24131393 189.11691666 C26.23155211 190.81284092 26.22916414 192.50882513 26.23448563 194.20476913 C26.28800295 212.09859665 26.28800295 212.09859665 19.87109375 219.37109375 C19.29488281 219.82613281 18.71867187 220.28117188 18.125 220.75 C17.54621094 221.22308594 16.96742188 221.69617188 16.37109375 222.18359375 C12.19600703 224.98312986 7.69268733 224.53169145 2.875 224.5625 C1.68293945 224.5934375 1.68293945 224.5934375 0.46679688 224.625 C-5.61777746 224.66526186 -9.79698282 223.65339403 -14.39453125 219.375 C-14.96558594 218.694375 -15.53664062 218.01375 -16.125 217.3125 C-16.70894531 216.631875 -17.29289063 215.95125 -17.89453125 215.25 C-20.79259598 211.2901099 -20.45835915 207.23891317 -20.45294189 202.55119324 C-20.45591302 201.75248709 -20.45888414 200.95378095 -20.4619453 200.13087159 C-20.47064013 197.44555426 -20.4721412 194.76028148 -20.47363281 192.07495117 C-20.47826042 190.15323287 -20.483285 188.2315155 -20.48867798 186.30979919 C-20.50180926 181.08246831 -20.50824833 175.85515027 -20.51268864 170.62780547 C-20.51561811 167.3631439 -20.51972268 164.09848586 -20.52419281 160.83382607 C-20.5378695 150.62283252 -20.54753538 140.41184701 -20.5513947 130.20084494 C-20.55587639 118.40742879 -20.57342875 106.61412848 -20.6023953 94.82074755 C-20.62399971 85.708989 -20.63409832 76.59726307 -20.63543582 67.48547918 C-20.63648471 62.04146933 -20.64241049 56.59756835 -20.66025543 51.15358543 C-20.67671468 46.03264859 -20.67890202 40.91190271 -20.67011642 35.79094887 C-20.66934491 33.911607 -20.67370383 32.03225495 -20.68357468 30.15293884 C-20.69626303 27.58665035 -20.69043444 25.02104137 -20.67999268 22.45475769 C-20.68804908 21.71165523 -20.69610548 20.96855277 -20.70440602 20.20293206 C-20.64996933 14.47957822 -19.28588421 10.43309231 -15.375 6.23046875 C-14.694375 5.65941406 -14.01375 5.08835938 -13.3125 4.5 C-12.631875 3.91605469 -11.95125 3.33210937 -11.25 2.73046875 C-7.66564129 0.10723849 -4.31480105 0.09455735 0 0 Z " fill="#FEFEFE" transform="translate(186.3125,158.6875)"/>
<path d="M0 0 C0.69931641 -0.020625 1.39863281 -0.04125 2.11914062 -0.0625 C8.0135498 -0.10661157 11.94743239 1.16543427 16.26953125 5.1875 C16.84058594 5.868125 17.41164063 6.54875 18 7.25 C18.87591797 8.2709375 18.87591797 8.2709375 19.76953125 9.3125 C21.95195122 12.29453941 22.31473711 14.83731402 22.34812927 18.42251587 C22.3581749 19.27187714 22.36822052 20.1212384 22.37857056 20.99633789 C22.38440155 21.92518799 22.39023254 22.85403809 22.39624023 23.81103516 C22.41091591 25.28230362 22.41091591 25.28230362 22.42588806 26.78329468 C22.45584495 30.03520349 22.47723059 33.28707108 22.49609375 36.5390625 C22.50266558 37.65039928 22.5092374 38.76173607 22.51600838 39.90674973 C22.54860623 45.79149859 22.57305386 51.67622933 22.5925293 57.56103516 C22.61032932 62.42653837 22.64512909 67.29146062 22.69506836 72.15673828 C22.75533107 78.034692 22.78601395 83.91210775 22.79570198 89.79035568 C22.80424881 92.02701448 22.82304765 94.26365922 22.8524456 96.50014114 C22.89146787 99.63825945 22.89238008 102.77429323 22.88452148 105.91259766 C22.90452209 106.82930237 22.92452271 107.74600708 22.94512939 108.69049072 C22.86786654 115.59550208 20.65739054 120.01369102 16.1875 125.25 C12.07583437 128.45925988 7.70735407 130.04036496 2.5625 130.75 C-7.66135395 129.23535497 -13.3280549 124.04443401 -19.8125 116.25 C-22.31715978 111.59992438 -22.11499309 107.05227392 -22.11889648 101.9050293 C-22.12722 100.97105316 -22.13554352 100.03707703 -22.14411926 99.07479858 C-22.16818852 95.99122939 -22.17698778 92.90787188 -22.18359375 89.82421875 C-22.19256258 87.67576536 -22.20168447 85.5273126 -22.21095276 83.37886047 C-22.22743707 78.87568648 -22.23514184 74.37258678 -22.23803711 69.86938477 C-22.24341953 64.10918284 -22.28109677 58.34968263 -22.32678127 52.58967876 C-22.35657618 48.15175346 -22.36376121 43.71399662 -22.36476326 39.27598 C-22.36896087 37.1529602 -22.38137665 35.02993969 -22.40228081 32.90701866 C-22.42924424 29.93187764 -22.42435456 26.95835657 -22.41186523 23.9831543 C-22.42669952 23.11275009 -22.44153381 22.24234589 -22.45681763 21.3455658 C-22.37453339 14.43538713 -20.13731026 9.60565572 -15.26357174 4.68670177 C-10.3550974 0.40692568 -6.26871978 0.04546669 0 0 Z " fill="#FEFEFE" transform="translate(323.8125,129.75)"/>
</svg>
