<?xml version="1.0" standalone="no"?>
<!DOCTYPE svg PUBLIC "-//W3C//DTD SVG 20010904//EN"
 "http://www.w3.org/TR/2001/REC-SVG-20010904/DTD/svg10.dtd">
<svg version="1.0" xmlns="http://www.w3.org/2000/svg"
 width="2240.000000pt" height="1260.000000pt" viewBox="0 0 2240.000000 1260.000000"
 preserveAspectRatio="xMidYMid meet">

<g transform="translate(0.000000,1260.000000) scale(0.100000,-0.100000)"
fill="#000000" stroke="none">
<path d="M10195 7915 c-5 -1 -37 -8 -70 -15 -155 -32 -198 -50 -333 -142 -99
-67 -197 -217 -243 -371 l-29 -97 3 -1073 3 -1072 22 -74 c36 -118 96 -216
187 -306 92 -92 168 -138 300 -181 l90 -29 1075 0 1075 0 75 24 c249 78 429
256 493 486 11 39 24 111 29 160 5 50 7 535 5 1085 l-3 995 -31 95 c-49 152
-106 240 -217 336 -96 81 -165 118 -288 151 l-103 28 -1015 2 c-558 1 -1019 0
-1025 -2z m1330 -285 c214 -23 469 -124 647 -258 201 -150 205 -161 100 -292
-152 -193 -256 -311 -283 -326 -36 -18 -46 -13 -130 60 -133 117 -328 189
-509 189 -384 1 -715 -289 -760 -666 -32 -272 73 -535 285 -710 83 -69 167
-110 295 -142 93 -24 117 -27 210 -22 67 3 126 13 162 25 88 32 134 32 166 2
22 -20 22 -26 22 -304 0 -271 -1 -284 -20 -301 -29 -26 -125 -44 -280 -51
-181 -9 -342 8 -481 51 -106 32 -315 129 -354 164 -11 10 -42 33 -70 51 -106
72 -275 253 -360 386 -130 203 -211 459 -221 704 -5 106 -2 148 20 272 14 81
37 183 52 225 111 332 366 626 679 786 268 136 540 188 830 157z m821 -1147
c12 -7 30 -25 40 -40 18 -27 19 -55 19 -598 0 -531 -1 -573 -18 -598 -38 -58
-311 -224 -450 -273 -54 -19 -111 -18 -128 3 -11 13 -15 104 -19 457 -3 243
-9 447 -13 454 -6 9 -100 12 -412 12 l-403 0 -32 30 c-45 42 -39 63 61 245
176 321 161 302 234 318 11 3 263 4 560 4 402 -2 545 -5 561 -14z"/>
</g>
</svg>
